<svg width="1440" height="966" viewBox="0 0 1440 966" fill="none" xmlns="http://www.w3.org/2000/svg">
<path d="M481.738 1977.65C482.062 1975.79 482.277 1973.93 482.709 1972.1C486.107 1957.52 477.073 1944.96 462.133 1943.69C459.031 1943.42 455.903 1943.56 452.802 1943.56C335.817 1943.56 218.832 1943.56 101.874 1943.56C98.5299 1943.56 95.159 1943.66 91.815 1943.39C80.6505 1942.5 72.1827 1933.77 71.5894 1922.75C70.9961 1911.48 78.1156 1901.91 89.0913 1899.73C92.5701 1899.03 96.2377 1899.03 99.8244 1899.03C157.589 1899 215.353 1899 273.144 1899C276.03 1899 278.915 1899.08 281.774 1898.87C293.343 1898.06 301.919 1889.41 302.593 1877.98C303.267 1866.66 295.689 1856.85 284.336 1854.77C281.316 1854.2 278.133 1854.28 275.032 1854.28C231.884 1854.26 188.736 1854.28 145.588 1854.28C142.703 1854.28 139.817 1854.37 136.959 1854.12C126.199 1853.26 117.596 1844.85 116.571 1834.26C115.519 1823.58 122.153 1813.53 132.617 1810.81C136.716 1809.73 141.139 1809.68 145.426 1809.65C247.552 1809.6 349.651 1809.6 451.777 1809.6C454.663 1809.6 457.521 1809.68 460.407 1809.54C472.677 1809.06 481.792 1800.08 482.169 1788.14C482.547 1775.88 473.675 1765.98 461.324 1765.01C458.222 1764.77 455.094 1764.91 451.966 1764.91C342.909 1764.91 233.826 1764.91 124.769 1764.91C122.126 1764.91 119.484 1764.99 116.868 1764.85C104.867 1764.26 95.5635 1754.83 95.3208 1743.07C95.0781 1731.11 104.436 1720.89 116.76 1720.49C128.734 1720.08 140.734 1720.38 152.708 1720.35C155.836 1720.35 158.964 1720.46 162.065 1720.24C174.066 1719.41 182.938 1709.81 182.884 1697.84C182.83 1685.9 173.85 1676.44 161.796 1675.74C158.937 1675.58 156.052 1675.66 153.166 1675.66C82.4573 1675.64 11.7486 1675.61 -58.9872 1675.55C-61.63 1675.55 -64.2728 1675.64 -66.8886 1675.47C-79.3207 1674.66 -88.2739 1664.96 -88.0042 1652.67C-87.7345 1640.73 -78.5656 1631.62 -66.3763 1631.13C-64.4616 1631.05 -62.5469 1631.11 -60.6322 1631.11C50.8245 1631.11 162.308 1631.08 273.765 1631.05C276.165 1631.05 278.565 1631 280.965 1631.11C293.181 1631.67 302.269 1640.78 302.539 1652.72C302.836 1664.91 293.829 1674.75 281.37 1675.53C275.868 1675.88 270.34 1675.42 264.838 1675.77C249.197 1676.79 239.489 1693.18 246.15 1707.31C249.818 1715.07 256.155 1719.38 264.704 1720.22C267.562 1720.49 270.448 1720.32 273.333 1720.32C406.364 1720.32 539.421 1720.32 672.452 1720.32C675.095 1720.32 677.738 1720.41 680.354 1720.24C692.273 1719.46 701.496 1709.76 701.55 1698.06C701.604 1686.07 692.111 1676.28 679.814 1675.72C676.956 1675.58 674.07 1675.66 671.185 1675.66C586.075 1675.66 500.993 1675.66 415.883 1675.66C412.782 1675.66 409.627 1675.8 406.553 1675.47C394.552 1674.15 386.138 1664.29 386.624 1652.27C387.082 1640.7 396.089 1631.46 407.955 1631.22C424.001 1630.89 440.073 1631.19 456.146 1631.03C459.706 1631 463.4 1630.73 466.771 1629.71C477.073 1626.53 483.167 1616.42 481.765 1605.56C480.471 1595.34 471.895 1587.25 461.404 1586.5C458.303 1586.28 455.175 1586.36 452.047 1586.36C350.164 1586.36 248.28 1586.36 146.424 1586.36C143.539 1586.36 140.653 1586.47 137.795 1586.26C125.309 1585.26 116.275 1575.5 116.544 1563.43C116.814 1551.38 126.253 1542 138.9 1541.86C160.96 1541.65 183.019 1541.81 205.052 1541.76C208.153 1541.76 211.335 1541.67 214.328 1541.03C225.628 1538.6 232.666 1528.87 231.776 1517.25C230.94 1506.34 222.257 1497.63 210.984 1497.23C199.496 1496.82 187.981 1497.15 176.466 1497.01C173.122 1496.99 169.724 1496.88 166.488 1496.15C155.89 1493.83 148.986 1484.48 149.418 1473.48C149.849 1462.75 157.912 1453.97 168.699 1452.7C172.259 1452.3 175.873 1452.38 179.459 1452.38C296.444 1452.38 413.429 1452.38 530.387 1452.35C533.974 1452.35 537.615 1452.4 541.147 1451.84C552.258 1450.09 559.836 1440.89 559.755 1429.68C559.647 1418.52 551.799 1409.47 540.689 1407.96C537.372 1407.5 534.001 1407.55 530.657 1407.55C478.637 1407.55 426.616 1407.55 374.596 1407.55C371.495 1407.55 368.34 1407.63 365.265 1407.31C353.615 1406.07 345.04 1396.34 345.282 1384.86C345.525 1373.59 354.047 1364.4 365.427 1363.27C368.528 1362.97 371.657 1363.05 374.758 1363.05C421.493 1363.02 468.254 1363 514.989 1363C517.632 1363 520.275 1363.08 522.89 1362.92C534.325 1362.3 543.17 1353.43 543.682 1342.11C544.222 1330.3 536.212 1320.49 524.643 1318.93C521.812 1318.55 518.899 1318.55 516.041 1318.55C429.987 1318.42 343.934 1318.28 257.881 1318.17C254.995 1318.17 252.137 1318.23 249.251 1318.12C237.709 1317.69 228.864 1309.04 228.244 1297.66C227.596 1286.15 235.201 1276.31 246.393 1274.48C249.44 1273.97 252.595 1274 255.696 1274C289.729 1273.97 323.762 1274 357.822 1274C360.222 1274 362.623 1274.08 365.023 1273.94C376.484 1273.32 385.248 1264.48 385.761 1253.11C386.3 1241.54 378.722 1231.81 367.45 1230.03C363.216 1229.36 358.847 1229.23 354.559 1229.23C304.454 1229.17 254.348 1229.2 204.269 1229.17C201.141 1229.17 198.013 1229.25 194.939 1228.98C183.531 1228.01 174.902 1218.98 174.443 1207.69C174.012 1196.85 181.725 1187.15 192.727 1185.18C196.233 1184.56 199.874 1184.56 203.46 1184.56C270.097 1184.54 336.734 1184.56 403.37 1184.54C406.256 1184.54 409.141 1184.62 412 1184.4C423.111 1183.59 431.794 1175.05 432.738 1164.11C433.682 1153.22 426.536 1143.16 415.641 1140.68C411.946 1139.85 408.036 1139.82 404.233 1139.82C295.635 1139.77 187.064 1139.79 78.4661 1139.79C75.3379 1139.79 72.2366 1139.9 69.1084 1139.69C58.2136 1138.9 49.6649 1130.6 48.6671 1119.98C47.6153 1108.72 54.2493 1098.85 65.1172 1096.21C68.7848 1095.32 72.7221 1095.27 76.5245 1095.27C165.221 1095.21 253.917 1095.24 342.613 1095.24C345.498 1095.24 348.384 1095.32 351.242 1095.18C363.512 1094.59 372.52 1085.51 372.789 1073.54C373.059 1061.25 364.187 1051.55 351.755 1050.63C349.139 1050.44 346.496 1050.52 343.853 1050.52C278.16 1050.52 212.495 1050.52 146.802 1050.52C143.916 1050.52 141.031 1050.6 138.172 1050.47C126.064 1049.9 116.814 1040.6 116.544 1028.82C116.275 1017.02 125.12 1007.21 137.093 1006.1C139.709 1005.86 142.352 1005.97 144.995 1005.97C184.799 1005.97 224.576 1005.97 264.38 1005.97C267.023 1005.97 269.666 1006.08 272.281 1005.83C283.608 1004.81 292.13 995.617 292.426 984.27C292.723 972.545 284.39 962.788 272.821 961.494C269.747 961.143 266.591 961.305 263.49 961.305C156.106 961.251 48.721 961.224 -58.6905 961.17C-61.8188 961.17 -64.947 961.305 -68.0213 960.982C-79.9679 959.742 -88.4357 949.823 -87.9502 937.801C-87.4918 926.211 -78.4038 917.263 -66.592 916.805C-64.1919 916.697 -61.7918 916.751 -59.3917 916.751C104.571 916.751 268.533 916.751 432.495 916.751C434.41 916.751 436.325 916.751 438.239 916.751C451.615 917.02 461.512 926.535 461.458 939.068C461.404 951.548 451.534 961.063 438.051 961.251C424.864 961.413 411.676 961.251 398.489 961.359C395.415 961.386 392.206 961.602 389.293 962.464C378.884 965.564 372.735 975.267 373.841 986.318C374.866 996.534 383.307 1004.84 393.77 1005.83C396.143 1006.05 398.57 1005.97 400.943 1005.97C530.63 1005.97 660.317 1005.97 790.003 1005.97C792.161 1005.97 794.318 1006.05 796.476 1005.89C808.179 1005.02 816.944 995.752 817.133 984.108C817.321 972.06 808.611 962.356 796.691 961.413C793.833 961.197 790.947 961.305 788.062 961.305C723.34 961.305 658.618 961.305 593.896 961.305C591.253 961.305 588.61 961.386 585.994 961.251C573.508 960.631 564.07 951.09 564.016 939.122C563.962 926.831 573.643 916.993 586.48 916.831C603.496 916.616 620.513 916.778 637.529 916.751C639.929 916.751 642.329 916.831 644.73 916.643C657 915.645 666.196 905.511 665.737 893.57C665.306 881.764 655.975 872.6 643.894 872.142C640.792 872.034 637.664 872.088 634.536 872.088C460.757 872.088 286.952 872.088 113.173 872.088C109.587 872.088 105.946 872.25 102.386 871.872C90.3048 870.525 81.7022 860.66 82.1067 848.881C82.5113 837.102 91.7881 828.019 104.004 827.533C107.106 827.399 110.234 827.48 113.362 827.48C231.776 827.48 350.191 827.48 468.605 827.48C471.949 827.48 475.347 827.641 478.664 827.21C490.395 825.701 498.808 815.97 498.485 804.515C498.161 792.628 489.073 783.464 476.911 782.817C473.81 782.655 470.681 782.736 467.553 782.736C360.169 782.736 252.784 782.736 145.372 782.709C141.786 782.709 138.145 782.709 134.639 782.062C123.34 779.933 115.816 769.96 116.625 758.693C117.407 747.804 126.064 739.152 137.201 738.289C140.303 738.047 143.431 738.155 146.532 738.155C231.641 738.155 316.724 738.155 401.833 738.128C405.42 738.128 409.061 738.128 412.566 737.481C423.596 735.432 430.904 725.998 430.5 714.786C430.095 703.681 421.924 694.84 410.76 693.654C407.443 693.304 404.045 693.384 400.701 693.384C296.175 693.384 191.676 693.384 87.1497 693.384C83.3203 693.384 79.437 693.465 75.6615 692.98C64.3352 691.471 56.1101 681.767 56.3528 670.635C56.5955 659.692 64.7667 650.555 75.8233 649.126C78.6549 648.749 81.5674 648.776 84.4259 648.749C110.8 648.749 137.174 648.749 163.522 648.722C166.38 648.722 169.293 648.722 172.124 648.345C182.507 646.943 190.435 638.372 191.163 627.994C191.918 617.294 184.988 607.402 174.524 604.949C170.614 604.032 166.461 603.979 162.389 603.979C88.552 603.844 14.7419 603.79 -59.095 603.709C-62.2233 603.709 -65.3515 603.817 -68.4258 603.52C-79.3476 602.442 -87.6806 593.251 -87.9772 582.2C-88.2739 570.664 -80.2645 561.068 -69.046 559.667C-66.4572 559.343 -63.7874 559.424 -61.1446 559.424C70.9422 559.424 203.002 559.397 335.089 559.424C338.433 559.424 341.831 559.478 345.094 560.125C356.042 562.362 363.162 571.957 362.542 583.197C361.948 594.14 353.4 603.062 342.235 603.736C335.062 604.194 327.861 603.817 320.661 603.979C317.56 604.059 314.378 604.194 311.411 604.922C300.948 607.509 294.152 617.159 294.853 628.021C295.527 638.426 303.456 646.97 313.892 648.345C316.724 648.722 319.636 648.695 322.495 648.722C378.587 648.722 434.68 648.722 490.772 648.722C493.172 648.722 495.572 648.749 497.945 648.506C509.514 647.374 517.901 638.479 518.225 627.105C518.549 615.623 510.863 606.189 499.402 604.41C495.869 603.871 492.228 603.952 488.642 603.925C476.425 603.844 464.182 604.032 451.966 603.763C443.309 603.574 436.891 599.235 433.062 591.553C429.232 583.871 429.853 576.189 434.68 569.046C438.698 563.117 444.523 560.044 451.615 559.478C454.474 559.235 457.359 559.343 460.245 559.343C540.797 559.343 621.322 559.343 701.874 559.343C705.218 559.343 708.589 559.451 711.932 559.154C722.8 558.211 731.268 549.747 732.131 539.155C733.048 527.888 726.279 518.077 715.411 515.516C711.744 514.654 707.806 514.627 704.004 514.627C593.249 514.573 482.52 514.6 371.765 514.6C366.263 514.6 360.735 514.6 355.233 514.6C339.215 514.519 329.264 505.84 329.372 492.147C329.48 478.589 339.619 470.018 355.665 469.991C386.111 469.937 416.558 469.991 447.004 469.991C451.804 469.991 456.604 470.099 461.378 469.937C474.052 469.56 483.302 460.423 483.518 448.186C483.734 435.652 474.538 426.003 461.62 425.356C458.762 425.221 455.876 425.302 452.991 425.302C336.006 425.302 219.021 425.302 102.063 425.302C98.9345 425.302 95.8332 425.41 92.705 425.221C80.9471 424.547 71.9939 415.41 71.6703 403.82C71.3198 391.852 79.9493 382.014 91.8959 380.882C94.5118 380.639 97.1546 380.747 99.7974 380.747C157.562 380.747 215.326 380.747 273.117 380.747C276.003 380.747 278.889 380.855 281.747 380.666C293.748 379.858 302.755 370.289 302.755 358.402C302.755 346.516 293.721 336.92 281.72 336.165C279.104 336.004 276.461 336.085 273.819 336.085C230.428 336.085 187.037 336.085 143.647 336.031C139.844 336.031 135.907 335.869 132.293 334.845C121.884 331.88 115.439 321.691 116.706 311.098C117.947 300.802 126.333 292.554 136.743 291.638C139.844 291.368 142.972 291.503 146.074 291.503C248.2 291.503 350.298 291.503 452.424 291.503C455.553 291.503 458.681 291.638 461.755 291.368C473.81 290.263 482.439 280.56 482.223 268.619C481.981 256.625 473.001 247.487 460.784 246.867C457.926 246.733 455.04 246.814 452.155 246.814C343.098 246.814 234.015 246.814 124.958 246.814C122.073 246.814 119.187 246.921 116.328 246.679C104.22 245.601 95.2399 235.978 95.3478 224.28C95.4557 212.259 104.921 202.582 117.407 202.34C130.594 202.07 143.781 202.34 156.968 202.205C160.285 202.178 163.737 201.989 166.919 201.127C177.626 198.243 184.071 188.189 182.803 176.922C181.644 166.626 173.284 158.54 162.713 157.677C159.854 157.435 156.968 157.516 154.083 157.516C82.8888 157.462 11.6946 157.408 -59.4995 157.327C-62.6008 157.327 -65.756 157.408 -68.8303 157.057C-80.4533 155.71 -88.9211 145.818 -88.4896 134.335C-88.0312 122.691 -79.0779 113.662 -67.3201 113.042C-65.1627 112.934 -63.0053 112.988 -60.8479 112.988C50.6087 112.961 162.092 112.907 273.549 112.88C276.434 112.88 279.32 112.799 282.179 113.042C293.424 113.958 301.865 122.476 302.593 133.527C303.348 145.009 295.986 154.847 284.579 156.788C279.671 157.623 274.547 157.219 269.531 157.516C266.187 157.704 262.735 157.704 259.58 158.594C250.573 161.208 244.532 169.564 244.289 179.052C244.047 188.917 249.764 197.704 258.96 200.669C262.303 201.747 266.025 202.151 269.558 202.151C405.231 202.232 540.905 202.232 676.578 202.178C689.765 202.178 698.503 195.682 701.065 184.362C703.896 171.828 695.105 159.241 682.322 157.731C679.005 157.327 675.634 157.462 672.263 157.462C587.154 157.462 502.071 157.462 416.962 157.462C413.834 157.462 410.706 157.57 407.631 157.3C394.984 156.141 386.354 146.545 386.705 134.281C387.055 122.395 396.062 113.257 408.521 112.988C424.108 112.638 439.669 112.907 455.256 112.826C458.114 112.826 461.027 112.772 463.832 112.26C474.888 110.239 482.25 100.94 481.981 89.6998C481.684 78.6218 473.594 69.6732 462.429 68.3794C458.87 67.9751 455.256 68.0559 451.669 68.0559C350.271 68.0559 248.874 68.0559 147.476 68.0559C143.647 68.0559 139.763 68.1638 135.988 67.7055C124.661 66.3039 116.463 56.7623 116.625 45.4686C116.787 34.4445 124.85 25.3072 135.907 23.8517C138.738 23.4743 141.651 23.5013 144.51 23.5013C164.412 23.4743 184.314 23.5013 204.189 23.4743C207.047 23.4743 209.96 23.4743 212.791 23.1239C223.605 21.6954 231.48 12.9893 231.911 2.18082C232.37 -9.08588 225.088 -18.5197 214.14 -20.6221C211.335 -21.1612 208.422 -21.2151 205.564 -21.242C194.049 -21.3229 182.534 -21.0264 171.046 -21.4307C158.074 -21.8889 149.094 -31.8079 149.498 -44.4493C149.822 -54.3952 156.591 -62.8857 166.461 -65.015C170.398 -65.8506 174.551 -65.9045 178.596 -65.9045C295.824 -65.9584 413.025 -65.9314 530.252 -65.9584C533.381 -65.9584 536.509 -65.8506 539.583 -66.0932C550.128 -66.9287 558.514 -75.0418 559.674 -85.3382C560.915 -96.3354 554.82 -106.281 544.464 -109.3C540.635 -110.405 536.428 -110.594 532.41 -110.594C479.661 -110.675 426.94 -110.648 374.192 -110.648C371.306 -110.648 368.421 -110.54 365.562 -110.783C355.18 -111.645 346.847 -119.731 345.471 -130.162C344.123 -140.324 350.406 -150.62 360.33 -153.747C363.917 -154.879 367.854 -155.149 371.657 -155.176C401.375 -155.283 431.093 -155.283 460.838 -155.202C466.771 -155.202 472.272 -156.065 477.1 -159.785C483.194 -164.502 485.756 -170.943 486.161 -178.437H1879.79V1977.87H481.738V1977.65Z" stroke="#E6E6E9" stroke-miterlimit="10"/>
</svg>
