<svg width="1440" height="751" viewBox="0 0 1440 751" fill="none" xmlns="http://www.w3.org/2000/svg">
<path d="M1454.11 4.86841H1425.81C1406.59 4.86841 1391 20.4741 1391 39.7113V50.5111C1391 69.7482 1406.59 85.354 1425.81 85.354H1454.11C1473.33 85.354 1488.92 69.7482 1488.92 50.5111V39.7113C1488.92 20.4741 1473.33 4.86841 1454.11 4.86841ZM1471.56 50.5111C1471.56 60.1364 1463.74 67.9798 1454.11 67.9798H1425.81C1416.19 67.9798 1408.36 60.1499 1408.36 50.5111V39.7113C1408.36 30.086 1416.18 22.2426 1425.81 22.2426H1454.11C1463.72 22.2426 1471.56 30.0725 1471.56 39.7113V50.5111Z" fill="#8956FF"/>
<path d="M1175.11 660H1146.81C1127.59 660 1112 675.606 1112 694.843V705.643C1112 724.88 1127.59 740.486 1146.81 740.486H1175.11C1194.33 740.486 1209.92 724.88 1209.92 705.643V694.843C1209.92 675.606 1194.33 660 1175.11 660ZM1192.56 705.643C1192.56 715.268 1184.74 723.111 1175.11 723.111H1146.81C1137.19 723.111 1129.36 715.282 1129.36 705.643V694.843C1129.36 685.218 1137.18 677.374 1146.81 677.374H1175.11C1184.72 677.374 1192.56 685.204 1192.56 694.843V705.643Z" fill="#8956FF"/>
<path d="M1197.14 29.033C1195.4 31.4224 1193.84 33.6364 1192.34 35.7828C1192.64 37.0518 1192.82 38.3478 1192.82 39.6978V50.5381C1192.82 60.2039 1184.97 68.0608 1175.31 68.0608H1146.92C1137.26 68.0608 1129.41 60.2039 1129.41 50.5381V39.6978C1129.41 30.0319 1137.26 22.1751 1146.92 22.1751H1173.1C1174.85 19.1916 1176.71 16.1407 1178.71 13.0357C1180.29 10.5788 1181.94 8.16234 1183.63 5.77288C1180.96 5.12489 1178.2 4.7334 1175.32 4.7334H1146.93C1127.65 4.7334 1112 20.3796 1112 39.6978V50.5381C1112 69.8427 1127.65 85.5025 1146.93 85.5025H1175.32C1194.61 85.5025 1210.25 69.8562 1210.25 50.5381V39.6978C1210.25 32.4214 1208.03 25.6715 1204.23 20.0691C1201.77 22.9716 1199.37 25.982 1197.16 29.033H1197.14Z" fill="#F16200"/>
<path d="M1196.7 -5H1196.66L1196.56 -4.8515C1192.09 0.372904 1186.91 7.27128 1181.92 15.0201C1173.85 27.5614 1167.81 39.0632 1165.68 45.4621H1165.41C1164.84 43.9771 1164.29 43.0186 1163.76 41.7632C1160.04 32.8398 1158.17 29.7754 1158.17 29.7754H1136.74C1144.95 43.2481 1149.32 52.671 1151.63 58.6919H1175.11C1177.04 52.617 1182.5 42.9781 1194.26 26.8459C1204.4 12.9277 1216.97 0.845396 1224.28 -5H1196.69H1196.7Z" fill="#283620"/>
<path d="M1358.14 316.033C1356.4 318.422 1354.84 320.636 1353.34 322.783C1353.64 324.052 1353.82 325.348 1353.82 326.698V337.538C1353.82 347.204 1345.97 355.061 1336.31 355.061H1307.92C1298.26 355.061 1290.41 347.204 1290.41 337.538V326.698C1290.41 317.032 1298.26 309.175 1307.92 309.175H1334.1C1335.85 306.192 1337.71 303.141 1339.71 300.036C1341.29 297.579 1342.94 295.162 1344.63 292.773C1341.96 292.125 1339.2 291.733 1336.32 291.733H1307.93C1288.65 291.733 1273 307.38 1273 326.698V337.538C1273 356.843 1288.65 372.502 1307.93 372.502H1336.32C1355.61 372.502 1371.25 356.856 1371.25 337.538V326.698C1371.25 319.421 1369.03 312.672 1365.23 307.069C1362.77 309.972 1360.37 312.982 1358.16 316.033H1358.14Z" fill="#8956FF"/>
<path d="M1357.7 282H1357.66L1357.56 282.149C1353.09 287.373 1347.91 294.271 1342.92 302.02C1334.85 314.561 1328.81 326.063 1326.68 332.462H1326.41C1325.84 330.977 1325.29 330.019 1324.76 328.763C1321.04 319.84 1319.17 316.775 1319.17 316.775H1297.74C1305.95 330.248 1310.32 339.671 1312.63 345.692H1336.11C1338.04 339.617 1343.5 329.978 1355.26 313.846C1365.4 299.928 1377.97 287.845 1385.28 282H1357.69H1357.7Z" fill="#283620"/>
<path d="M1140.56 527.188C1138.82 529.577 1137.26 531.791 1135.76 533.937C1136.06 535.206 1136.23 536.502 1136.23 537.852V548.693C1136.23 558.358 1128.38 566.215 1118.72 566.215H1090.33C1080.68 566.215 1072.83 558.358 1072.83 548.693V537.852C1072.83 528.186 1080.68 520.33 1090.33 520.33H1116.51C1118.27 517.346 1120.13 514.295 1122.12 511.19C1123.7 508.733 1125.36 506.317 1127.05 503.927C1124.38 503.279 1121.61 502.888 1118.74 502.888H1090.35C1071.06 502.888 1055.42 518.534 1055.42 537.852V548.693C1055.42 567.997 1071.06 583.657 1090.35 583.657H1118.74C1138.03 583.657 1153.67 568.011 1153.67 548.693V537.852C1153.67 530.576 1151.44 523.826 1147.64 518.224C1145.19 521.126 1142.79 524.137 1140.57 527.188H1140.56Z" fill="#F16200"/>
<path d="M1140.13 493.155H1140.09L1139.99 493.303C1135.52 498.527 1130.34 505.426 1125.35 513.175C1117.28 525.716 1111.24 537.218 1109.11 543.617H1108.84C1108.27 542.132 1107.72 541.173 1107.19 539.918C1103.47 530.994 1101.6 527.93 1101.6 527.93H1080.17C1088.38 541.403 1092.75 550.825 1095.05 556.846H1118.54C1120.46 550.771 1125.93 541.133 1137.69 525C1147.83 511.082 1160.4 499 1167.71 493.155H1140.12H1140.13Z" fill="#283620"/>
<path d="M1026.14 111.033C1024.4 113.422 1022.84 115.636 1021.34 117.783C1021.64 119.052 1021.82 120.348 1021.82 121.698V132.538C1021.82 142.204 1013.97 150.061 1004.31 150.061H975.918C966.261 150.061 958.412 142.204 958.412 132.538V121.698C958.412 112.032 966.261 104.175 975.918 104.175H1002.1C1003.85 101.192 1005.71 98.1407 1007.71 95.0357C1009.29 92.5788 1010.94 90.1623 1012.63 87.7729C1009.96 87.1249 1007.2 86.7334 1004.32 86.7334H975.932C956.645 86.7334 941 102.38 941 121.698V132.538C941 151.843 956.645 167.502 975.932 167.502H1004.32C1023.61 167.502 1039.25 151.856 1039.25 132.538V121.698C1039.25 114.421 1037.03 107.672 1033.23 102.069C1030.77 104.972 1028.37 107.982 1026.16 111.033H1026.14Z" fill="#FFCB88"/>
<path d="M1025.71 77H1025.67L1025.58 77.1485C1021.1 82.3729 1015.92 89.2713 1010.93 97.0201C1002.87 109.561 996.824 121.063 994.693 127.462H994.423C993.856 125.977 993.303 125.019 992.777 123.763C989.055 114.84 987.18 111.775 987.18 111.775H965.749C973.963 125.248 978.333 134.671 980.639 140.692H1004.12C1006.05 134.617 1011.51 124.978 1023.27 108.846C1033.41 94.9277 1045.98 82.8454 1053.29 77H1025.7H1025.71Z" fill="#283620"/>
<path d="M1454.11 557H1425.81C1406.59 557 1391 572.606 1391 591.843V602.643C1391 621.88 1406.59 637.486 1425.81 637.486H1454.11C1473.33 637.486 1488.92 621.88 1488.92 602.643V591.843C1488.92 572.606 1473.33 557 1454.11 557ZM1471.56 602.643C1471.56 612.268 1463.74 620.111 1454.11 620.111H1425.81C1416.19 620.111 1408.36 612.282 1408.36 602.643V591.843C1408.36 582.218 1416.18 574.374 1425.81 574.374H1454.11C1463.72 574.374 1471.56 582.204 1471.56 591.843V602.643Z" fill="#FECB8B"/>
</svg>
