<svg width="26" height="25" viewBox="0 0 26 25" fill="none" xmlns="http://www.w3.org/2000/svg">
<path d="M2.12275 15.7408C3.44391 16.1515 6.5167 17.4956 9.53012 18.8696C9.57465 18.892 11.8236 19.93 12.7959 20.3855C14.785 21.3413 19.5575 24.5 19.5575 24.5L19.2013 17.1596C19.2013 17.1596 19.0528 16.1217 14.837 14.4415L26 14.4938L26 10.1179L14.3991 10.2075C17.9692 8.96048 19.0973 7.82545 19.0973 7.82545L19.0973 0.499999C14.0354 3.60641 11.7048 4.77878 9.44105 5.65246C3.41422 8.13161 1.34415e-06 9.12476 1.34415e-06 9.12476L8.23852e-07 15.0762L2.12275 15.7408Z"/>
</svg>
