<?xml version="1.0" encoding="utf-8"?>
<!-- Generator: Adobe Illustrator 27.2.0, SVG Export Plug-In . SVG Version: 6.00 Build 0)  -->
<svg version="1.1" id="Layer_1" xmlns="http://www.w3.org/2000/svg" xmlns:xlink="http://www.w3.org/1999/xlink" x="0px" y="0px"
	 viewBox="0 0 208.1 60" style="enable-background:new 0 0 208.1 60;" xml:space="preserve">
<style type="text/css">
	.st0{enable-background:new    ;}
	.st1{fill:#283620;}
	.st2{fill:#FFCB88;}
	.st3{fill:#F16200;}
	.st4{fill:#8956FF;}
</style>
<g class="st0">
	<path class="st1" d="M16.6,33.8c-3,0-5.7-0.6-8.2-1.9c-2.4-1.2-4.4-3.1-5.8-5.5C1.3,24,0.6,21,0.6,17.3c0-3.6,0.8-6.6,2.2-9.1
		c1.4-2.5,3.3-4.3,5.8-5.5C10.9,1.6,13.7,1,16.8,1c3,0,5.5,0.5,7.6,1.4c2.1,0.9,3.8,2.3,5,4.1c1.3,1.8,2.1,4,2.5,6.5h-6
		c-0.3-1.9-0.9-3.3-1.9-4.3c-1-1-2.1-1.6-3.4-1.8c-1.3-0.2-2.6-0.4-3.9-0.4c-3.4,0-6,0.9-7.8,2.6c-1.8,1.7-2.7,4.4-2.7,7.8
		c0,3.7,0.9,6.5,2.7,8.5s4.3,3,7.7,3c1.4,0,2.8-0.2,4.1-0.7c1.3-0.4,2.5-1.2,3.4-2.2c0.9-1,1.6-2.3,1.8-3.9h6
		c-0.4,2.3-1.3,4.3-2.5,6.2c-1.3,1.8-3,3.3-5.1,4.4C22.3,33.2,19.7,33.8,16.6,33.8z"/>
	<path class="st1" d="M43.9,33.8c-3.2,0-5.5-1.1-6.9-3.3S35,25.4,35,21.8c0-3.6,0.7-6.5,2.1-8.7c1.4-2.2,3.7-3.3,6.9-3.3
		c1.8,0,3.3,0.3,4.3,0.9c1.1,0.6,1.9,1.3,2.4,2.1c0.5,0.8,0.9,1.3,1,1.8l0.1-0.1V9.8h6v23.4h-5l-1-3.8h-0.1c-0.1,0.3-0.4,0.9-1,1.6
		c-0.6,0.7-1.4,1.3-2.5,1.9S45.7,33.8,43.9,33.8z M46.3,28.9c2.1,0,3.6-0.7,4.3-2c0.7-1.3,1.1-3,1.1-5c0-2.1-0.4-3.8-1.1-5
		c-0.8-1.3-2.2-1.9-4.3-1.9c-1.5,0-2.6,0.3-3.4,0.9c-0.8,0.6-1.4,1.5-1.7,2.5c-0.3,1-0.5,2.2-0.5,3.5s0.2,2.5,0.5,3.5
		c0.3,1.1,0.9,1.9,1.7,2.5C43.7,28.6,44.9,28.9,46.3,28.9z"/>
	<path class="st1" d="M62.4,33.2V1.1h5.7v32.1H62.4z"/>
	<path class="st1" d="M76.8,7.2c-1.3,0-2.1-0.3-2.5-0.9c-0.4-0.6-0.6-1.3-0.6-2.2c0-0.8,0.2-1.6,0.6-2.2C74.8,1.3,75.6,1,76.8,1
		c1.2,0,2,0.3,2.4,0.9c0.4,0.6,0.6,1.3,0.6,2.2c0,0.9-0.2,1.6-0.6,2.2C78.8,6.9,78,7.2,76.8,7.2z M73.8,33.2V9.8h5.8v23.4H73.8z"/>
</g>
<g class="st0">
	<path class="st1" d="M86.8,33.2V13.9h-3.2V9.8h3.2V6c0-2.1,0.5-3.5,1.4-4.5c0.9-0.9,2.3-1.4,4.2-1.4h6.2v4.5h-5.9v5.2h5.8v4.1h-5.8
		v19.3H86.8z"/>
</g>
<g class="st0">
	<path class="st1" d="M111.4,33.8c-2.7,0-4.9-0.5-6.6-1.5c-1.7-1-3.1-2.4-3.9-4.2c-0.9-1.8-1.3-3.9-1.3-6.2c0-3.5,0.9-6.4,2.9-8.6
		c2-2.3,5-3.4,8.9-3.4c3.8,0,6.8,1.1,8.8,3.3c2,2.2,3,5.1,3,8.7c0,2.2-0.4,4.3-1.3,6.1c-0.8,1.8-2.1,3.3-3.9,4.3
		C116.3,33.3,114.1,33.8,111.4,33.8z M111.4,28.9c1.7,0,3-0.4,3.8-1.1c0.9-0.7,1.5-1.6,1.8-2.8c0.3-1.1,0.5-2.3,0.5-3.4
		c0-1.2-0.2-2.3-0.5-3.5c-0.3-1.1-0.9-2.1-1.8-2.8s-2.2-1.1-3.8-1.1c-1.7,0-3,0.4-3.9,1.1c-0.9,0.7-1.5,1.7-1.8,2.8
		c-0.3,1.1-0.5,2.3-0.5,3.4c0,1.1,0.2,2.3,0.5,3.4c0.3,1.1,0.9,2,1.8,2.8C108.4,28.5,109.7,28.9,111.4,28.9z"/>
</g>
<g class="st0">
	<path class="st1" d="M127.2,33.2V9.8h5.4l0.4,6.5c0.2-1,0.7-2,1.3-3s1.6-1.8,2.8-2.5c1.2-0.7,2.7-1,4.6-1h0.9v6.5h-0.9
		c-3.3,0-5.5,0.5-6.8,1.6c-1.3,1-1.9,2.8-1.9,5.3v10.1H127.2z"/>
</g>
<g class="st0">
	<path class="st1" d="M146.5,33.2V9.8h5l1,5l0.1,0.1c0-0.1,0.2-0.4,0.4-0.9c0.2-0.5,0.7-1.1,1.3-1.7c0.6-0.6,1.4-1.2,2.4-1.7
		c1-0.5,2.3-0.7,3.8-0.7c2.1,0,3.7,0.4,4.8,1.3c1.1,0.8,2,1.9,2.5,3.2s0.8,2.6,0.9,4c0.1,1.4,0.2,2.6,0.2,3.7v11.3h-5.7V21.8
		c0-1.3-0.1-2.4-0.3-3.4c-0.2-1-0.7-1.9-1.5-2.6c-0.7-0.7-1.8-1-3.3-1c-1.5,0-2.7,0.4-3.5,1.1c-0.8,0.7-1.3,1.6-1.7,2.7
		c-0.3,1.1-0.5,2.2-0.5,3.4v11.2H146.5z"/>
</g>
<g class="st0">
	<path class="st1" d="M177,7.2c-1.3,0-2.1-0.3-2.5-0.9c-0.4-0.6-0.6-1.3-0.6-2.2c0-0.8,0.2-1.6,0.6-2.2C175,1.3,175.8,1,177,1
		c1.2,0,2,0.3,2.4,0.9c0.4,0.6,0.6,1.3,0.6,2.2c0,0.9-0.2,1.6-0.6,2.2C179,6.9,178.2,7.2,177,7.2z M174,33.2V9.8h5.8v23.4H174z"/>
</g>
<g class="st0">
	<path class="st1" d="M193.2,33.8c-3.2,0-5.5-1.1-6.9-3.3s-2.1-5.1-2.1-8.7c0-3.6,0.7-6.5,2.1-8.7c1.4-2.2,3.7-3.3,6.9-3.3
		c1.8,0,3.3,0.3,4.3,0.9c1.1,0.6,1.9,1.3,2.4,2.1c0.5,0.8,0.9,1.3,1,1.8l0.1-0.1V9.8h6v23.4h-5l-1-3.8h-0.1c-0.1,0.3-0.4,0.9-1,1.6
		c-0.6,0.7-1.4,1.3-2.5,1.9S194.9,33.8,193.2,33.8z M195.6,28.9c2.1,0,3.6-0.7,4.3-2c0.7-1.3,1.1-3,1.1-5c0-2.1-0.4-3.8-1.1-5
		c-0.8-1.3-2.2-1.9-4.3-1.9c-1.5,0-2.6,0.3-3.4,0.9s-1.4,1.5-1.7,2.5c-0.3,1-0.5,2.2-0.5,3.5s0.2,2.5,0.5,3.5
		c0.3,1.1,0.9,1.9,1.7,2.5S194.1,28.9,195.6,28.9z"/>
</g>
<g>
	<path class="st2" d="M81.1,48.3c-0.3,0.5-0.6,0.9-0.9,1.3c0.1,0.2,0.1,0.5,0.1,0.8v2.1c0,1.8-1.5,3.3-3.3,3.3h-5.4
		c-1.8,0-3.3-1.5-3.3-3.3v-2.1c0-1.8,1.5-3.3,3.3-3.3h5c0.3-0.6,0.7-1.2,1.1-1.8c0.3-0.5,0.6-0.9,0.9-1.4c-0.5-0.1-1-0.2-1.6-0.2
		h-5.4c-3.7,0-6.7,3-6.7,6.7v2.1c0,3.7,3,6.7,6.7,6.7h5.4c3.7,0,6.7-3,6.7-6.7v-2.1c0-1.4-0.4-2.7-1.2-3.8
		C81.9,47.2,81.5,47.8,81.1,48.3L81.1,48.3z"/>
	<path class="st1" d="M81,41.9L81,41.9L81,41.9c-0.9,1-1.9,2.3-2.8,3.8c-1.5,2.4-2.7,4.6-3.1,5.8H75c-0.1-0.3-0.2-0.5-0.3-0.7
		c-0.7-1.7-1.1-2.3-1.1-2.3h-4.1c1.6,2.6,2.4,4.4,2.8,5.5h4.5c0.4-1.2,1.4-3,3.7-6.1c1.9-2.7,4.3-5,5.7-6.1L81,41.9L81,41.9z"/>
	<path class="st3" d="M59.1,48.3c-0.3,0.5-0.6,0.9-0.9,1.3c0.1,0.2,0.1,0.5,0.1,0.8v2.1c0,1.8-1.5,3.3-3.3,3.3h-5.4
		c-1.8,0-3.3-1.5-3.3-3.3v-2.1c0-1.8,1.5-3.3,3.3-3.3h5c0.3-0.6,0.7-1.2,1.1-1.8c0.3-0.5,0.6-0.9,0.9-1.4c-0.5-0.1-1-0.2-1.6-0.2
		h-5.4c-3.7,0-6.7,3-6.7,6.7v2.1c0,3.7,3,6.7,6.7,6.7h5.4c3.7,0,6.7-3,6.7-6.7v-2.1c0-1.4-0.4-2.7-1.2-3.8
		C59.9,47.2,59.5,47.8,59.1,48.3L59.1,48.3z"/>
	<path class="st4" d="M32.9,43.7h-5.4c-3.7,0-6.7,3-6.7,6.7v2.1c0,3.7,3,6.7,6.7,6.7h5.4c3.7,0,6.7-3,6.7-6.7v-2.1
		C39.6,46.7,36.6,43.7,32.9,43.7z M36.3,52.4c0,1.8-1.5,3.3-3.3,3.3h-5.4c-1.8,0-3.4-1.5-3.4-3.3v-2.1c0-1.8,1.5-3.3,3.4-3.3h5.4
		c1.8,0,3.3,1.5,3.3,3.3V52.4z"/>
	<path class="st1" d="M59,41.9L59,41.9L59,41.9c-0.9,1-1.9,2.3-2.8,3.8c-1.5,2.4-2.7,4.6-3.1,5.8h0c-0.1-0.3-0.2-0.5-0.3-0.7
		c-0.7-1.7-1.1-2.3-1.1-2.3h-4.1c1.6,2.6,2.4,4.4,2.8,5.5h4.5c0.4-1.2,1.4-3,3.7-6.1c1.9-2.7,4.3-5,5.7-6.1L59,41.9L59,41.9z"/>
</g>
<g class="st0">
	<path class="st1" d="M88.1,59.1L93,43.9h4.5l5,15.3h-3l-1.3-4.3h-5.9L91,59.1H88.1z M95.3,45L93,52.7h4.6L95.3,45z"/>
	<path class="st1" d="M107.3,59.1h-2.8V43.9h6.1c1.7,0,3,0.4,4,1.3s1.4,2.1,1.4,3.8c0,1.5-0.5,2.7-1.5,3.5c-1,0.9-2.3,1.3-3.9,1.3
		h-3.4V59.1z M110.2,46.1h-3v5.6h3c1,0,1.8-0.2,2.4-0.7c0.6-0.5,0.9-1.2,0.9-2.1c0-1-0.3-1.7-0.9-2.1
		C112,46.3,111.2,46.1,110.2,46.1z"/>
</g>
<g class="st0">
	<path class="st1" d="M121.2,59.1h-2.8V43.9h6.1c1.7,0,3,0.4,4,1.3c0.9,0.8,1.4,2.1,1.4,3.8c0,1.5-0.5,2.7-1.5,3.5
		c-1,0.9-2.3,1.3-3.9,1.3h-3.4V59.1z M124.2,46.1h-3v5.6h3c1,0,1.8-0.2,2.4-0.7c0.6-0.5,0.9-1.2,0.9-2.1c0-1-0.3-1.7-0.9-2.1
		C126,46.3,125.2,46.1,124.2,46.1z"/>
</g>
<g class="st0">
	<path class="st1" d="M132.5,59.1V43.9h5.6c2,0,3.5,0.3,4.6,1c1.1,0.7,1.7,1.8,1.7,3.5c0,1.2-0.3,2.3-0.9,3
		c-0.6,0.8-1.5,1.2-2.6,1.2c0.6,0,1.1,0.1,1.4,0.4c0.3,0.3,0.5,0.6,0.7,1c0.1,0.4,0.2,0.9,0.3,1.3c0.1,0.5,0.1,0.9,0.2,1.2
		c0.1,0.4,0.2,0.6,0.5,0.7s0.6,0.1,1.2-0.1v1.6c-0.3,0.3-0.8,0.5-1.2,0.6c-0.5,0.1-0.9,0.1-1.4-0.1c-0.5-0.2-0.8-0.5-1.1-1
		c-0.3-0.5-0.5-1.2-0.5-2c0-0.8,0-1.4-0.1-1.9c-0.1-0.5-0.3-0.8-0.7-1.1s-0.9-0.4-1.7-0.4s-1.8-0.1-3.1-0.1v6.4H132.5z M135.3,50.8
		h2.7c0.9,0,1.6,0,2.2-0.1c0.6-0.1,1-0.3,1.3-0.6s0.4-0.8,0.4-1.5c0-0.8-0.2-1.3-0.5-1.7c-0.3-0.3-0.8-0.6-1.5-0.6
		c-0.7-0.1-1.5-0.1-2.4-0.1h-2.2V50.8z"/>
</g>
<g class="st0">
	<path class="st1" d="M154.4,59.4c-2.5,0-4.3-0.7-5.6-2.1c-1.3-1.4-2-3.3-2-5.8c0-1.6,0.3-3,0.8-4.2c0.6-1.2,1.4-2.1,2.5-2.7
		c1.1-0.6,2.5-0.9,4.2-0.9c2.5,0,4.4,0.7,5.7,2c1.3,1.4,1.9,3.3,1.9,5.7c0,1.6-0.3,3-0.9,4.2c-0.6,1.2-1.4,2.1-2.5,2.8
		C157.5,59.1,156.1,59.4,154.4,59.4z M154.4,56.8c1.6,0,2.9-0.5,3.7-1.5s1.2-2.2,1.2-3.8c0-1-0.2-1.9-0.5-2.8
		c-0.4-0.8-0.9-1.4-1.6-1.8s-1.6-0.6-2.7-0.6c-1.6,0-2.8,0.5-3.6,1.4c-0.8,0.9-1.2,2.2-1.2,3.8c0,1,0.2,1.9,0.5,2.7
		c0.4,0.8,0.9,1.4,1.6,1.9C152.4,56.5,153.3,56.8,154.4,56.8z"/>
</g>
<g class="st0">
	<path class="st1" d="M174.7,43.9h3l-5,15.3h-4.6l-5-15.3h3l4.3,14.1L174.7,43.9z"/>
</g>
<g class="st0">
	<path class="st1" d="M183.2,56.9h8.4v2.2h-11.2V43.9h10.9v2.4h-8.2v4h6.3v2.3h-6.3V56.9z"/>
	<path class="st1" d="M200.1,59.4c-0.8,0-1.6-0.1-2.5-0.3c-0.8-0.2-1.5-0.5-2.2-0.9c-0.7-0.4-1.2-1-1.5-1.6
		c-0.4-0.7-0.6-1.5-0.6-2.4h2.8c0,0.1,0,0.2,0.1,0.5c0.1,0.3,0.2,0.6,0.5,1c0.3,0.3,0.7,0.6,1.2,0.9c0.6,0.3,1.3,0.4,2.3,0.4
		c1.1,0,1.9-0.2,2.4-0.6c0.5-0.4,0.8-0.8,0.8-1.3c0-0.5-0.2-0.9-0.5-1.2c-0.4-0.3-0.8-0.5-1.4-0.7c-0.6-0.2-1.2-0.4-1.9-0.5
		c-0.7-0.2-1.4-0.3-2.1-0.6c-0.7-0.2-1.3-0.5-1.9-0.8s-1-0.8-1.3-1.4c-0.3-0.6-0.5-1.3-0.4-2.1c0.1-1.3,0.7-2.2,1.8-2.9
		c1.1-0.7,2.6-1,4.5-1c1.1,0,2.1,0.2,3,0.5c0.9,0.3,1.7,0.9,2.2,1.6s0.9,1.8,0.9,3.1h-2.7c0-0.7-0.1-1.2-0.4-1.5s-0.6-0.6-1-0.8
		s-0.8-0.3-1.2-0.3c-0.4,0-0.8,0-1.2,0c-0.9,0-1.6,0.1-2.2,0.4c-0.6,0.2-0.9,0.7-0.9,1.2c0,0.5,0.2,0.9,0.5,1.2
		c0.4,0.3,0.8,0.6,1.4,0.7c0.6,0.2,1.2,0.3,2,0.5s1.4,0.3,2.1,0.5c0.7,0.2,1.3,0.5,1.9,0.8c0.6,0.3,1,0.8,1.4,1.4
		c0.3,0.6,0.5,1.3,0.4,2.2c-0.1,1.3-0.7,2.3-1.9,3S201.9,59.4,200.1,59.4z"/>
</g>
</svg>
