<svg width="83" height="34" viewBox="0 0 83 34" fill="none" xmlns="http://www.w3.org/2000/svg">
<path d="M0 17.35L72 17.35" stroke="#8956FF" stroke-width="6.3"/>
<path d="M79.9792 12.4088C78.0991 11.827 73.7262 9.92284 69.4379 7.97635C69.3745 7.94462 66.1741 6.47418 64.7905 5.82887C61.9597 4.4748 55.1681 0 55.1681 0L55.6751 10.3989C55.6751 10.3989 55.8864 11.8693 61.8858 14.2495L46 14.1755V20.3746L62.509 20.2477C57.4285 22.0143 55.823 23.6223 55.823 23.6223L55.823 34C63.0266 29.5993 66.3431 27.9384 69.5647 26.7007C78.1413 23.1885 83 21.7816 83 21.7816V13.3503L79.9792 12.4088Z" fill="#8956FF"/>
</svg>
