<svg width="33" height="27" viewBox="0 0 33 27" fill="none" xmlns="http://www.w3.org/2000/svg">
<path d="M25.0474 9.82195C24.5496 10.5009 24.0969 11.1497 23.6594 11.7682C23.7499 12.1303 23.7952 12.5075 23.7952 12.8998V16.0229C23.7952 18.799 21.532 21.0773 18.7408 21.0773H10.5483C7.7722 21.0773 5.49398 18.8141 5.49398 16.0229V12.8998C5.49398 10.1237 7.75711 7.84548 10.5483 7.84548H18.0921C18.6051 6.98549 19.1331 6.11042 19.7064 5.20516C20.1591 4.49605 20.6419 3.80202 21.1247 3.10799C20.3552 2.92694 19.5556 2.80624 18.7258 2.80624H10.5332C5.01118 2.82133 0.5 7.33251 0.5 12.8847V16.0078C0.5 21.5752 5.01118 26.0863 10.5634 26.0863H18.7559C24.3232 26.0863 28.8193 21.5752 28.8193 16.0229V12.8998C28.8193 10.8026 28.1706 8.85635 27.0843 7.24198C26.3751 8.08689 25.6811 8.94688 25.0474 9.82195Z" fill="#F16200"/>
<path d="M24.9266 0.0150875L24.8964 0.0603502C23.5989 1.56911 22.1203 3.54557 20.6719 5.77853C18.3484 9.38446 16.5983 12.7037 15.9948 14.5444H15.9193C15.7534 14.1219 15.6025 13.8353 15.4516 13.4732C14.3804 10.9083 13.8373 10.0181 13.8373 10.0181H7.65137C10.0201 13.8956 11.2724 16.6114 11.9513 18.3465H18.7256C19.2839 16.5963 20.853 13.8202 24.2477 9.17323C27.1747 5.15994 30.7957 1.68981 32.9079 0H24.9568L24.9266 0.0150875Z" fill="white"/>
</svg>
