<?xml version="1.0" encoding="UTF-8"?><svg id="Layer_1" xmlns="http://www.w3.org/2000/svg" viewBox="0 0 62.71 15.42"><defs><style>.cls-1{fill:#fff;}.cls-2{fill:#ffcb88;}.cls-3{fill:#f16200;}</style></defs><path class="cls-1" d="m12.1,0h-5.43C2.99,0,0,2.99,0,6.67v2.07C0,12.43,2.99,15.42,6.67,15.42h5.43c3.69,0,6.67-2.99,6.67-6.67v-2.07c0-3.69-2.99-6.67-6.67-6.67Zm3.35,8.74c0,1.84-1.5,3.35-3.35,3.35h-5.43c-1.84,0-3.35-1.5-3.35-3.35v-2.07c0-1.84,1.5-3.35,3.35-3.35h5.43c1.84,0,3.35,1.5,3.35,3.35v2.07Z"/><path class="cls-3" d="m34.07,0h-5.43c-3.69,0-6.67,2.99-6.67,6.67v2.07c0,3.69,2.99,6.67,6.67,6.67h5.43c3.69,0,6.67-2.99,6.67-6.67v-2.07c0-3.69-2.99-6.67-6.67-6.67Zm3.35,8.74c0,1.84-1.5,3.35-3.35,3.35h-5.43c-1.84,0-3.35-1.5-3.35-3.35v-2.07c0-1.84,1.5-3.35,3.35-3.35h5.43c1.84,0,3.35,1.5,3.35,3.35v2.07Z"/><path class="cls-2" d="m56.03,0h-5.43c-3.69,0-6.67,2.99-6.67,6.67v2.07c0,3.69,2.99,6.67,6.67,6.67h5.43c3.69,0,6.67-2.99,6.67-6.67v-2.07c0-3.69-2.99-6.67-6.67-6.67Zm3.35,8.74c0,1.84-1.5,3.35-3.35,3.35h-5.43c-1.84,0-3.35-1.5-3.35-3.35v-2.07c0-1.84,1.5-3.35,3.35-3.35h5.43c1.84,0,3.35,1.5,3.35,3.35v2.07Z"/></svg>