<?xml version="1.0" encoding="UTF-8"?><svg id="Layer_1" xmlns="http://www.w3.org/2000/svg" viewBox="0 0 65.39 17.28"><defs><style>.cls-1{fill:#fff;}.cls-2{fill:#ffcb88;}.cls-3{fill:#f16200;}</style></defs><path class="cls-2" d="m60.2,6.5c-.33.45-.63.88-.92,1.29.06.24.09.49.09.75v2.07c0,1.84-1.5,3.35-3.35,3.35h-5.43c-1.84,0-3.35-1.5-3.35-3.35v-2.07c0-1.84,1.5-3.35,3.35-3.35h5c.34-.57.69-1.15,1.07-1.75.3-.47.62-.93.94-1.39-.51-.12-1.04-.2-1.59-.2h-5.43c-3.69,0-6.67,2.99-6.67,6.67v2.07c0,3.69,2.99,6.67,6.67,6.67h5.43c3.69,0,6.67-2.99,6.67-6.67v-2.07c0-1.39-.43-2.68-1.15-3.75-.47.56-.93,1.13-1.35,1.71Z"/><path class="cls-1" d="m60.12,0h0l-.02.03c-.86,1-1.84,2.31-2.8,3.79-1.54,2.39-2.7,4.59-3.1,5.81h-.05c-.11-.28-.21-.47-.31-.71-.71-1.7-1.07-2.29-1.07-2.29h-4.1c1.57,2.57,2.4,4.37,2.85,5.52h4.49c.37-1.16,1.41-3,3.66-6.08,1.94-2.66,4.34-4.96,5.74-6.08h-5.27Z"/><path class="cls-3" d="m38.24,6.5c-.33.45-.63.88-.92,1.29.06.24.09.49.09.75v2.07c0,1.84-1.5,3.35-3.35,3.35h-5.43c-1.84,0-3.35-1.5-3.35-3.35v-2.07c0-1.84,1.5-3.35,3.35-3.35h5c.34-.57.69-1.15,1.07-1.75.3-.47.62-.93.94-1.39-.51-.12-1.04-.2-1.59-.2h-5.43c-3.69,0-6.67,2.99-6.67,6.67v2.07c0,3.69,2.99,6.67,6.67,6.67h5.43c3.69,0,6.67-2.99,6.67-6.67v-2.07c0-1.39-.43-2.68-1.15-3.75-.47.56-.93,1.13-1.35,1.71Z"/><path class="cls-1" d="m12.1,1.86h-5.43C2.99,1.86,0,4.85,0,8.53v2.07c0,3.69,2.99,6.67,6.67,6.67h5.43c3.69,0,6.67-2.99,6.67-6.67v-2.07c0-3.69-2.99-6.67-6.67-6.67Zm3.35,8.74c0,1.84-1.5,3.35-3.35,3.35h-5.43c-1.84,0-3.35-1.5-3.35-3.35v-2.07c0-1.84,1.5-3.35,3.35-3.35h5.43c1.84,0,3.35,1.5,3.35,3.35v2.07Z"/><path class="cls-1" d="m38.15,0h0l-.02.03c-.86,1-1.84,2.31-2.8,3.79-1.54,2.39-2.7,4.59-3.1,5.81h-.05c-.11-.28-.21-.47-.31-.71-.71-1.7-1.07-2.29-1.07-2.29h-4.1c1.57,2.57,2.4,4.37,2.85,5.52h4.49c.37-1.16,1.41-3,3.66-6.08,1.94-2.66,4.34-4.96,5.74-6.08h-5.27Z"/></svg>