<?xml version="1.0" encoding="UTF-8"?><svg id="Layer_1" xmlns="http://www.w3.org/2000/svg" viewBox="0 0 21.46 17.28"><defs><style>.cls-1{fill:#fff;}.cls-2{fill:#ffcb88;}</style></defs><path class="cls-2" d="m16.27,6.5c-.33.45-.63.88-.92,1.29.06.24.09.49.09.75v2.07c0,1.84-1.5,3.35-3.35,3.35h-5.43c-1.84,0-3.35-1.5-3.35-3.35v-2.07c0-1.84,1.5-3.35,3.35-3.35h5c.34-.57.69-1.15,1.07-1.75.3-.47.62-.93.94-1.39-.51-.12-1.04-.2-1.59-.2h-5.43C2.99,1.86,0,4.85,0,8.53v2.07C0,14.29,2.99,17.28,6.67,17.28h5.43c3.69,0,6.67-2.99,6.67-6.67v-2.07c0-1.39-.43-2.68-1.15-3.75-.47.56-.93,1.13-1.35,1.71Z"/><path class="cls-1" d="m16.19,0h0l-.02.03c-.86,1-1.84,2.31-2.8,3.79-1.54,2.39-2.7,4.59-3.1,5.81h-.05c-.11-.28-.21-.47-.31-.71-.71-1.7-1.07-2.29-1.07-2.29h-4.1c1.57,2.57,2.4,4.37,2.85,5.52h4.49c.37-1.16,1.41-3,3.66-6.08C17.66,3.42,20.06,1.12,21.46,0h-5.27Z"/></svg>